<?xml version="1.0" encoding="UTF-8"?>
<svg width="211px" height="80px" viewBox="0 0 211 80" version="1.1" xmlns="http://www.w3.org/2000/svg" xmlns:xlink="http://www.w3.org/1999/xlink">
    <!-- Generator: Sketch 53 (72520) - https://sketchapp.com -->
    <title>logo</title>
    <desc>Created with Sketch.</desc>
    <g id="logo" stroke="none" stroke-width="1" fill="none" fill-rule="evenodd">
        <text id="foodio" font-family="CheddarJack, Cheddar Jack" font-size="80" font-weight="normal" fill="#FF611D">
            <tspan x="0" y="60">foodio</tspan>
        </text>
        <g id="noun_Hot-Salad_1108786" transform="translate(136.000000, 9.000000)" fill="#FF611D" fill-rule="nonzero">
            <g id="Group">
                <path d="M35.8886719,8.3392591 C35.4257983,8.8666607 35.5007438,9.65108448 36.0551702,10.0906533 C36.3000205,10.2845331 36.5972475,10.3792468 36.8923454,10.3792468 C37.2670728,10.3792468 37.6392453,10.2270572 37.8977221,9.93239233 C38.767686,8.94073162 39.8778161,6.515413 37.8542878,4.43211607 C36.9741041,3.52585966 37.647336,2.62284128 37.8777083,2.36460478 C38.3499501,1.85177458 38.3001283,1.07220786 37.7635867,0.617662942 C37.2236385,0.161094316 36.3975348,0.2060226 35.9167764,0.718448021 C35.0280761,1.66598991 33.8877123,4.01399949 35.9321062,6.11915344 C36.8629633,7.07762384 36.0526151,8.14456979 35.8886719,8.3392591 Z" id="Path"></path>
                <path d="M24.9014921,12.1342838 C24.4386185,12.6616854 24.513564,13.4461091 25.0679903,13.885678 C25.3128406,14.0795577 25.6100676,14.1742714 25.9051655,14.1742714 C26.279893,14.1742714 26.6520655,14.0220818 26.9105423,13.727417 C27.7805062,12.7357563 28.8906363,10.3104377 26.8671079,8.22714074 C25.9869242,7.32088433 26.6601562,6.41786595 26.8905284,6.15962945 C27.3627702,5.64679926 27.3129485,4.86723253 26.7764069,4.41268761 C26.2368845,3.95611899 25.4103549,4.0006425 24.9295966,4.51347269 C24.0408963,5.46101458 22.9005324,7.80902416 24.9449263,9.91417811 C25.8757835,10.8726485 25.0654353,11.9395945 24.9014921,12.1342838 Z" id="Path"></path>
                <path d="M46.0697618,12.1342838 C45.6068882,12.6616854 45.6814079,13.4457044 46.2362601,13.885678 C46.4811104,14.0795577 46.7779116,14.1742714 47.0734353,14.1742714 C47.4481627,14.1742714 47.8199094,14.0220818 48.078812,13.727417 C48.9487759,12.7357563 50.0593319,10.3104377 48.0353777,8.22714074 C47.155194,7.32088433 47.8284259,6.41786595 48.0587982,6.15962945 C48.5310399,5.64679926 48.4812182,4.86723253 47.9446766,4.41268761 C47.40558,3.95611899 46.5786247,4.0006425 46.0978663,4.51347269 C45.209166,5.46101458 44.0688022,7.80902416 46.113196,9.91417811 C47.044479,10.8726485 46.233705,11.9391897 46.0697618,12.1342838 Z" id="Path"></path>
                <path d="M74.6963856,31.6954988 C74.6963856,29.992777 72.5525612,29.0885949 70.2187117,28.4625333 C70.3457145,27.7515226 70.4070336,26.9919409 70.3759483,26.1745798 C70.2085984,21.7744397 71.2395248,20.2189492 71.6738679,19.9704269 C72.238514,19.7809995 72.6013184,19.2459075 72.5387219,18.6699347 C72.4714413,18.0542955 71.9378805,17.5795127 71.2872173,17.5556319 C70.8009232,17.5374177 59.2593171,17.1958008 53.5949707,23.5485004 C53.3623629,23.8093173 53.1632356,24.0877918 52.9575614,24.3628258 C52.8117158,24.2551598 52.656981,24.1493658 52.4937829,24.0467593 L53.5417424,20.405948 C53.7763729,19.5879292 53.5106571,18.7270058 52.8484966,18.1599378 L50.8586085,16.4550909 C50.8394996,16.4386476 50.816984,16.4271625 50.7973427,16.4114781 C50.6404256,16.2164852 50.4228281,16.0626766 50.1581236,15.9823319 C49.9652773,15.923996 49.7698229,15.9143829 49.5820333,15.9391744 C49.5226837,15.9345197 49.4644519,15.9236418 49.4044104,15.9236418 L46.884794,15.9236418 C45.9028376,15.9236418 45.0162665,16.5125668 44.6790118,17.3896805 L42.9610141,21.8608053 C42.3016215,21.2474429 41.5850084,20.6960087 40.8018599,20.2424252 C38.1960668,18.7329254 35.3435072,18.3924721 32.7659784,19.2804131 C32.7627847,19.2814756 32.7594845,19.2816274 32.7562908,19.2827405 L28.8352788,20.6394942 C28.4371308,20.7771124 28.059529,20.9501472 27.6922536,21.1395239 L27.3431821,20.2310919 C27.0063532,19.3543829 26.1197821,18.7654579 25.1378258,18.7654579 L22.6186352,18.7654579 C22.5585404,18.7654579 22.5002022,18.7763359 22.4407461,18.7809906 C22.2525839,18.7559461 22.0570231,18.7655085 21.8644961,18.8241481 C21.5999513,18.9044422 21.3824071,19.0581496 21.2255432,19.2530413 C21.2061149,19.268574 21.1838122,19.2798566 21.1648629,19.2960976 L19.174549,21.0013492 C18.5119627,21.5688219 18.2462469,22.4297453 18.4813032,23.2485737 L18.6831982,23.9500724 C17.1670423,23.7478444 15.3318358,23.8353231 13.1185485,24.4011262 C9.53532358,22.1572916 5.06515483,22.3102906 4.8437782,22.3184364 C4.2063157,22.34596 3.68297468,22.8065763 3.60504837,23.4084536 C3.53904523,23.91926 3.80987102,24.4053761 4.26720881,24.6474223 C4.39112433,24.8060374 4.92069305,25.6584608 4.86544203,28.4401702 C2.6670586,29.0273749 0.338638343,29.9326701 0.306754622,31.6605882 C0.306435262,31.6701506 0.303667413,31.6790047 0.303614128,31.6886178 C0.303614128,31.6895285 0.303667326,31.694082 0.303667326,31.6951445 C0.303667326,31.6952963 0.303614128,31.6953468 0.303614128,31.6954986 C0.303614128,31.695954 0.303667326,31.6964599 0.303667326,31.6969153 C0.302443081,31.9763005 0.3179325,37.3881874 3.39554154,43.6342836 C6.24815442,49.4247724 12.3758002,57.026155 25.3703269,60.3848489 C25.4674154,60.4496105 25.6535016,60.6224428 25.7799722,60.739823 C26.1964307,61.1263683 26.714236,61.6076273 27.4219599,61.7521264 C30.4960026,62.3795036 33.8400194,62.6976445 37.3607544,62.6976445 C40.5961854,62.6976445 43.6868354,62.4288842 46.547539,61.8986493 C47.257392,61.7666977 47.7624225,61.2902959 48.1686611,60.9073934 C48.2780986,60.803775 48.4365061,60.6544187 48.5267813,60.588443 C74.2535255,54.5243368 74.6951078,32.0338776 74.6963853,31.8072123 C74.6964385,31.7983076 74.6939368,31.7901112 74.6937771,31.7812571 C74.6948419,31.7526205 74.6963856,31.7239837 74.6963856,31.6954988 Z M71.8207781,31.7116892 C71.2355858,32.0749608 70.0401839,32.4648453 68.2971688,32.84709 C68.268532,32.8411704 68.2386176,32.8352508 68.2097679,32.8293313 C68.6851502,32.2455163 69.1119882,31.5861125 69.4605805,30.8451498 C70.783145,31.2030584 71.4748471,31.5118898 71.8207781,31.7116892 Z M68.5155114,20.1315211 C68.0019644,21.422299 67.6510833,23.359073 67.7613724,26.2644364 C67.965503,31.6321539 63.4949085,33.4895445 62.6716791,33.7854742 C61.4777144,33.9407501 60.1842658,34.0888414 58.7885657,34.2259031 C59.3000368,32.529708 60.5638904,29.3744056 63.4260311,26.4963635 C63.922545,25.9976999 63.8991246,25.2104427 63.3740803,24.7388979 C62.8503135,24.2669484 62.0216548,24.2892102 61.5251409,24.7882786 C57.6813099,28.6529725 56.3885002,32.8882237 56.0186165,34.4725534 C55.2003906,34.538428 54.3566151,34.6010139 53.4837768,34.6589957 C52.7847291,30.728326 53.4781878,27.5297145 55.5857105,25.1622763 C58.9156749,21.4214895 65.0096805,20.4023052 68.5155114,20.1315211 Z M50.8632394,34.8151824 C49.5671827,34.8844468 48.217259,34.943997 46.8203878,34.9935801 C47.6869983,32.0627675 47.3051915,28.7863915 45.9501045,25.9439176 C48.8931523,24.6032531 50.891131,25.9026827 51.6572465,26.5810596 C50.6116823,28.9379232 50.3460196,31.692362 50.8632394,34.8151824 Z M49.2045912,22.9141918 L50.385036,19.3973886 L50.9740075,19.9020225 L50.0684871,23.0490779 C49.7914869,22.9874027 49.5014457,22.9450547 49.2045912,22.9141918 Z M47.0721577,18.4104839 L47.9697471,18.4104839 L46.3826911,23.138631 C45.9606436,23.247916 45.5270989,23.3980818 45.0840794,23.5853336 L47.0721577,18.4104839 Z M39.4400663,22.3657933 C40.9530285,23.2419963 42.1917583,24.5323189 43.0886025,26.0271461 C43.1058485,26.0572501 43.1182507,26.0887708 43.138371,26.1179135 C43.1472069,26.130714 43.1588639,26.1404788 43.1681257,26.1528746 C44.6876881,28.7630166 45.1603026,31.9783245 44.1790914,34.742528 C44.1379459,34.8578845 44.0881242,34.9652469 44.0427737,35.0767581 C41.956702,35.1273025 39.7760436,35.1553827 37.5,35.1553827 C37.1447541,35.1553827 36.7964279,35.1533589 36.4457064,35.1520434 C36.5708995,35.0258091 36.6794853,34.8827772 36.7416027,34.7077188 L37.2278968,33.3392271 C37.4591206,32.6887786 37.0916322,31.9828781 36.4073287,31.7634985 C35.7225995,31.5408808 34.9799577,31.8930215 34.7495855,32.54347 L34.2632915,33.9119617 C34.1065872,34.3527953 34.2294915,34.8154354 34.5350221,35.1384841 C33.3999811,35.1263919 32.2907027,35.10752 31.2072399,35.0823237 C31.1847243,35.037952 31.1655089,34.9927201 31.1368721,34.9501698 C29.242795,32.134663 28.7002919,28.6011129 29.7205726,25.7277256 C30.4373985,23.7083806 31.83246,22.2501841 33.6488236,21.6207325 L33.6513786,21.6198218 C33.6515915,21.6197206 33.6518576,21.6196195 33.6520706,21.6195183 C35.4700843,20.9917362 37.5246447,21.2557405 39.4400663,22.3657933 Z M26.4364908,34.9253275 C25.1976013,32.3758489 24.947375,29.4811104 25.798709,27.084479 C26.1755124,26.0232503 26.7435119,25.122357 27.4573039,24.4100309 C27.3849133,24.5838751 27.3054434,24.7520527 27.2414097,24.932373 C26.1285118,28.0668808 26.4939774,31.8029118 28.1630051,34.9930235 C27.5788773,34.972229 27.0031596,34.9496636 26.4364908,34.9253275 Z M25.5180359,22.7289131 C25.2705242,22.9792062 25.0349888,23.243413 24.8160074,23.5251762 L24.0529792,21.2523001 L24.9504622,21.2523001 L25.5180359,22.7289131 Z M21.0486124,22.7438386 L21.6376371,22.2391542 L22.7345134,25.5063219 C22.4118965,25.2728769 22.052339,25.0502086 21.6539782,24.8475253 L21.0486124,22.7438386 Z M22.7178529,29.2402785 C22.5794061,31.0708032 22.8610904,32.9632054 23.5498118,34.7823968 C21.3361518,34.6578321 19.2747781,34.5071098 17.3817125,34.3359977 C17.7446233,31.137032 17.0988038,28.5030092 15.4675151,26.4769351 C20.6095851,25.7508473 22.3459998,28.4838337 22.7178529,29.2402785 Z M13.1124807,27.63819 C14.5385742,29.174151 15.0944909,31.3400188 14.7832648,34.0776094 C14.5953688,34.0571691 14.4075793,34.0367287 14.2237285,34.0159342 C13.9103201,32.667984 13.0794258,30.0158482 11.0382789,27.5616905 C10.5903092,27.0229556 9.76718634,26.93148 9.20083683,27.357287 C8.63406157,27.7830939 8.53782471,28.5650891 8.98579439,29.103824 C10.323795,30.7124393 11.0467954,32.4528038 11.4238118,33.6636417 C10.7860831,33.5746958 10.1811964,33.4837767 9.60973692,33.3912385 C9.57795959,33.363816 9.549855,33.3337121 9.5146711,33.30887 C8.54037968,32.6215884 7.39575759,31.2769775 7.47581302,28.7731355 C7.52861555,27.1059313 7.39959009,25.8657484 7.17134695,24.9441111 C8.96663224,25.1930382 11.4636798,25.8621055 13.1124807,27.63819 Z M5.07447,30.976899 C5.21366206,31.5808507 5.40970203,32.1207492 5.6440664,32.5974547 C4.46915738,32.2968196 3.63778404,31.9960833 3.17964776,31.7116892 C3.48241055,31.5370861 4.05285855,31.2784448 5.07447,30.976899 Z M47.8113929,58.1946957 C47.1709496,58.3448614 46.7217024,58.7682398 46.3256836,59.1422376 C46.2107104,59.2503084 46.0450639,59.4065456 45.9492528,59.4757594 C43.2805971,59.9634946 40.3913631,60.2108027 37.3607547,60.2108027 C34.0516557,60.2108027 30.9167197,59.9161377 28.0423897,59.3349032 C27.9376363,59.2669037 27.7421819,59.0851667 27.6084723,58.9613102 C27.2056402,58.5869077 26.7487283,58.1627198 26.1176531,58.0004113 C7.93751564,53.3297907 4.00543212,40.1413109 3.15590791,34.4033397 C4.88769174,35.0563178 7.62841866,35.6874896 11.9444381,36.2530904 C18.7802337,37.148823 27.8558775,37.6422248 37.5,37.6422248 C47.1441225,37.6422248 56.2197663,37.148823 63.0555618,36.2530904 C67.3358118,35.692195 70.0670109,35.0668416 71.8011368,34.4195806 C71.4588254,36.4879521 70.6971812,39.5624037 69.0030829,42.8522886 C64.9675237,50.6896459 57.8379077,55.8515432 47.8113929,58.1946957 Z" id="Shape"></path>
                <path d="M31.9689373,27.3508108 C31.5929324,27.9373072 31.7883869,28.7023026 32.4054097,29.0593005 L33.7033293,29.8109388 C33.9158168,29.9343905 34.1504473,29.9926758 34.3825229,29.9926758 C34.8236793,29.9926758 35.2546159,29.7805819 35.5007437,29.3960604 C35.8767487,28.8095639 35.6812942,28.0445685 35.0642714,27.6875707 L33.7663517,26.9359323 C33.1493289,26.5769108 32.3445165,26.7639096 31.9689373,27.3508108 Z" id="Path"></path>
                <path d="M38.3980685,31.0745978 C38.0220636,31.6610942 38.217518,32.4260896 38.8345408,32.7830875 L40.1324605,33.5347258 C40.344948,33.6581775 40.5795785,33.7164628 40.811654,33.7164628 C41.2528105,33.7164628 41.6837471,33.5043689 41.9298749,33.1198474 C42.3058798,32.533351 42.1104254,31.7683555 41.4934026,31.4113577 L40.1954829,30.6597193 C39.5788858,30.3015072 38.7736476,30.4876966 38.3980685,31.0745978 Z" id="Path"></path>
                <path d="M37.4923351,28.7075645 C37.6307287,28.752088 37.7721032,28.7731356 37.9104969,28.7731356 C38.4564067,28.7731356 38.9656953,28.4456852 39.1500783,27.9267836 L39.6359465,26.5582919 C39.8667446,25.9078434 39.4992562,25.2023477 38.8145269,24.9825633 C38.1302234,24.7619694 37.3875817,25.1128959 37.1567837,25.7633443 L36.6709155,27.131836 C36.4401174,27.7822844 36.8076058,28.4877801 37.4923351,28.7075645 Z" id="Path"></path>
                <path d="M18.8023767,30.9442652 C18.8368687,31.0191457 18.8807288,31.0855263 18.9241631,31.1515021 C18.9765398,31.2263825 19.0289165,31.2842631 19.0898097,31.3425486 C19.3342342,31.5744758 19.6655274,31.7072368 20.0142794,31.7072368 C20.3545149,31.7072368 20.6947503,31.5744758 20.9387491,31.3425486 C20.9996423,31.2842632 21.052019,31.2263826 21.0958791,31.1515021 C21.1482558,31.0855263 21.1831736,31.0191457 21.2176655,30.9442652 C21.2525833,30.8697894 21.2789846,30.7868138 21.2964434,30.712338 C21.3139024,30.6293624 21.3224189,30.5463867 21.3224189,30.4638158 C21.3224189,30.3808401 21.3139024,30.3063644 21.2964434,30.2233886 C21.2789845,30.1404129 21.2525833,30.0659372 21.2176655,29.9910567 C21.1831736,29.916581 21.1482558,29.8421053 21.0958791,29.7757247 C21.052019,29.7093442 20.9996423,29.6429637 20.9387491,29.585083 C20.8778559,29.5267976 20.8080203,29.477417 20.7381847,29.4357267 C20.6683491,29.3859413 20.589997,29.352751 20.5116449,29.3195608 C20.432867,29.2863705 20.3545149,29.2616802 20.2672204,29.245085 C20.1015739,29.2118947 19.9269849,29.2118947 19.7528218,29.245085 C19.6744696,29.2616801 19.5871752,29.2863705 19.5083973,29.3195608 C19.4300451,29.3527511 19.3602096,29.3859413 19.290374,29.4357267 C19.2120219,29.477417 19.1511287,29.5267976 19.0898097,29.585083 C19.0289165,29.6429636 18.9765398,29.7093441 18.9241631,29.7757247 C18.8807288,29.8421053 18.8368687,29.916581 18.8023767,29.9910567 C18.7674589,30.0659372 18.75,30.140413 18.7325411,30.2233886 C18.7150823,30.3063643 18.7061398,30.3808401 18.7061398,30.4638158 C18.7061398,30.5463867 18.7150822,30.6293624 18.732541,30.7123381 C18.75,30.7868138 18.7674589,30.8697895 18.8023767,30.9442652 Z" id="Path"></path>
                <path d="M50.4157488,27.7114515 C50.380831,27.6369757 50.3369709,27.5705952 50.2935365,27.4961195 C50.2411599,27.4297389 50.1887832,27.3718584 50.12789,27.313573 C49.8225722,27.0233604 49.3690668,26.8910041 48.9504792,26.9739798 C48.8631847,26.9905749 48.7848326,27.0067653 48.7060547,27.0399555 C48.6277026,27.0731458 48.5493505,27.114836 48.4795149,27.1561215 C48.4011628,27.1978117 48.3398438,27.2556923 48.2789506,27.3135729 C48.2180574,27.3718583 48.1656807,27.4297389 48.113304,27.4961194 C48.0694438,27.5705952 48.0260095,27.6369757 47.9910917,27.7114514 C47.9651163,27.786332 47.9387151,27.8689029 47.9212561,27.9437834 C47.9037972,28.0267591 47.8952806,28.10933 47.8952806,28.1923057 C47.8952806,28.2752814 47.9037972,28.3497571 47.9212561,28.4327328 C47.9387151,28.5157086 47.9651163,28.5901843 47.9910917,28.66466 C48.0260096,28.7395404 48.0694439,28.8140162 48.113304,28.8803968 C48.1656807,28.9467774 48.2180574,29.0131579 48.2789506,29.0710385 C48.3398438,29.1289191 48.4011628,29.1787045 48.4795149,29.2203947 C48.5493505,29.2701802 48.6277026,29.3114656 48.7060547,29.3361559 C48.7848326,29.3693462 48.8631848,29.3944413 48.9504792,29.4110364 C49.0288313,29.4276315 49.1161258,29.4357267 49.2034203,29.4357267 C49.5436558,29.4357267 49.8834655,29.3029657 50.12789,29.0710385 C50.3718887,28.8391113 50.5115598,28.5157085 50.5115598,28.1923057 C50.5115598,28.10933 50.5026174,28.0267591 50.4851586,27.9437834 C50.4676996,27.8689029 50.4417242,27.786332 50.4157488,27.7114515 Z" id="Path"></path>
            </g>
        </g>
    </g>
</svg>